<svg xmlns="http://www.w3.org/2000/svg" xmlns:xlink="http://www.w3.org/1999/xlink" width="100" zoomAndPan="magnify" viewBox="0 0 75 93.749996" height="125" preserveAspectRatio="xMidYMid meet" version="1.2"><g id="f84ebccd6a"><path style=" stroke:none;fill-rule:nonzero;fill:#000000;fill-opacity:1;" d="M 6.734375 36.945312 L 16.414062 40.960938 C 15.570312 43.183594 14.871094 45.453125 14.3125 47.769531 C 14.226562 48.117188 14.230469 48.464844 14.328125 48.808594 C 14.421875 49.15625 14.597656 49.457031 14.851562 49.710938 L 25.179688 60.058594 C 25.433594 60.308594 25.734375 60.484375 26.082031 60.582031 C 26.429688 60.675781 26.777344 60.679688 27.125 60.597656 C 29.4375 60.035156 31.707031 59.332031 33.933594 58.488281 L 37.949219 68.164062 C 37.996094 68.285156 38.0625 68.394531 38.136719 68.5 C 38.214844 68.601562 38.300781 68.695312 38.402344 68.777344 C 38.5 68.859375 38.609375 68.925781 38.722656 68.980469 C 38.839844 69.035156 38.960938 69.078125 39.089844 69.101562 C 39.214844 69.128906 39.339844 69.136719 39.46875 69.128906 C 39.597656 69.125 39.722656 69.101562 39.847656 69.066406 C 39.96875 69.027344 40.085938 68.976562 40.199219 68.910156 C 40.308594 68.84375 40.410156 68.765625 40.5 68.675781 L 45.871094 63.304688 C 46.917969 62.253906 47.707031 61.035156 48.238281 59.652344 C 48.765625 58.265625 48.992188 56.832031 48.914062 55.351562 L 48.652344 50.265625 C 59.886719 41.730469 70.292969 27.273438 73.402344 3.476562 C 73.425781 3.34375 73.429688 3.207031 73.417969 3.070312 C 73.40625 2.9375 73.378906 2.804688 73.335938 2.675781 C 73.292969 2.542969 73.238281 2.421875 73.164062 2.304688 C 73.09375 2.191406 73.007812 2.082031 72.914062 1.988281 C 72.816406 1.890625 72.710938 1.808594 72.59375 1.734375 C 72.476562 1.664062 72.355469 1.605469 72.226562 1.5625 C 72.097656 1.523438 71.964844 1.496094 71.828125 1.484375 C 71.691406 1.472656 71.558594 1.476562 71.421875 1.496094 C 47.628906 4.59375 33.167969 14.960938 24.597656 26.21875 L 19.546875 25.984375 C 18.070312 25.90625 16.636719 26.132812 15.253906 26.660156 C 13.871094 27.191406 12.652344 27.976562 11.605469 29.023438 L 6.226562 34.410156 C 6.136719 34.5 6.058594 34.601562 5.996094 34.710938 C 5.929688 34.820312 5.878906 34.933594 5.84375 35.058594 C 5.808594 35.179688 5.785156 35.304688 5.78125 35.433594 C 5.773438 35.558594 5.785156 35.6875 5.808594 35.8125 C 5.832031 35.9375 5.875 36.054688 5.929688 36.171875 C 5.984375 36.285156 6.050781 36.394531 6.132812 36.492188 C 6.210938 36.589844 6.304688 36.679688 6.40625 36.753906 C 6.507812 36.832031 6.617188 36.894531 6.734375 36.945312 Z M 46.476562 19.222656 C 46.777344 18.925781 47.105469 18.65625 47.460938 18.421875 C 47.8125 18.1875 48.1875 17.988281 48.582031 17.824219 C 48.972656 17.664062 49.378906 17.542969 49.796875 17.460938 C 50.214844 17.378906 50.636719 17.335938 51.0625 17.339844 C 51.484375 17.339844 51.90625 17.382812 52.324219 17.464844 C 52.742188 17.550781 53.144531 17.671875 53.539062 17.835938 C 53.929688 18 54.304688 18.199219 54.65625 18.4375 C 55.011719 18.671875 55.335938 18.941406 55.636719 19.242188 C 55.9375 19.542969 56.207031 19.871094 56.441406 20.226562 C 56.679688 20.578125 56.878906 20.953125 57.039062 21.34375 C 57.203125 21.738281 57.324219 22.144531 57.40625 22.558594 C 57.492188 22.976562 57.53125 23.398438 57.53125 23.824219 C 57.53125 24.25 57.492188 24.671875 57.40625 25.085938 C 57.324219 25.503906 57.203125 25.910156 57.039062 26.300781 C 56.878906 26.695312 56.679688 27.070312 56.441406 27.421875 C 56.207031 27.777344 55.9375 28.105469 55.636719 28.40625 C 55.335938 28.707031 55.011719 28.976562 54.65625 29.210938 C 54.304688 29.449219 53.929688 29.648438 53.539062 29.8125 C 53.144531 29.976562 52.742188 30.097656 52.324219 30.183594 C 51.90625 30.265625 51.484375 30.308594 51.0625 30.308594 C 50.636719 30.308594 50.214844 30.269531 49.796875 30.1875 C 49.378906 30.105469 48.972656 29.984375 48.582031 29.820312 C 48.1875 29.660156 47.8125 29.460938 47.460938 29.226562 C 47.105469 28.992188 46.777344 28.722656 46.476562 28.425781 C 46.171875 28.121094 45.902344 27.792969 45.664062 27.441406 C 45.425781 27.085938 45.222656 26.710938 45.058594 26.316406 C 44.894531 25.921875 44.769531 25.511719 44.6875 25.09375 C 44.605469 24.675781 44.5625 24.25 44.5625 23.824219 C 44.5625 23.394531 44.605469 22.972656 44.6875 22.554688 C 44.769531 22.132812 44.894531 21.726562 45.058594 21.332031 C 45.222656 20.9375 45.425781 20.5625 45.664062 20.207031 C 45.902344 19.851562 46.171875 19.523438 46.476562 19.222656 Z M 1.597656 71.441406 C 2.148438 61.253906 7.09375 55.644531 9.929688 53.234375 C 10.066406 53.128906 10.226562 53.066406 10.402344 53.054688 C 10.578125 53.042969 10.742188 53.082031 10.898438 53.171875 C 11.050781 53.257812 11.164062 53.382812 11.242188 53.542969 C 11.320312 53.703125 11.34375 53.867188 11.320312 54.042969 C 11.042969 55.585938 11 57.132812 11.183594 58.6875 C 11.261719 59.324219 11.441406 59.929688 11.722656 60.503906 C 12 61.078125 12.367188 61.589844 12.820312 62.042969 C 13.269531 62.496094 13.785156 62.863281 14.359375 63.140625 C 14.933594 63.421875 15.539062 63.601562 16.175781 63.675781 C 17.738281 63.878906 19.300781 63.847656 20.855469 63.582031 C 21.039062 63.546875 21.210938 63.570312 21.378906 63.648438 C 21.542969 63.726562 21.671875 63.847656 21.761719 64.007812 C 21.851562 64.164062 21.890625 64.335938 21.871094 64.519531 C 21.851562 64.703125 21.785156 64.863281 21.664062 65 C 19.257812 67.800781 13.644531 72.742188 3.457031 73.304688 C 3.207031 73.320312 2.964844 73.28125 2.730469 73.191406 C 2.496094 73.101562 2.289062 72.96875 2.109375 72.789062 C 1.933594 72.613281 1.796875 72.40625 1.707031 72.171875 C 1.621094 71.9375 1.582031 71.691406 1.597656 71.441406 Z M 1.597656 71.441406 "/></g></svg>