<svg xmlns="http://www.w3.org/2000/svg" xmlns:xlink="http://www.w3.org/1999/xlink" width="100" zoomAndPan="magnify" viewBox="0 0 75 93.749996" height="125" preserveAspectRatio="xMidYMid meet" version="1.2"><g id="5303387113"><path style=" stroke:none;fill-rule:nonzero;fill:#000000;fill-opacity:1;" d="M 25.824219 23.726562 L 22.339844 23.546875 C 20.671875 23.464844 19.0625 23.722656 17.507812 24.320312 C 15.953125 24.921875 14.585938 25.808594 13.40625 26.988281 L 7.578125 32.777344 C 7.417969 32.945312 7.277344 33.128906 7.15625 33.328125 C 7.039062 33.53125 6.949219 33.742188 6.882812 33.964844 C 6.816406 34.191406 6.777344 34.417969 6.769531 34.652344 C 6.757812 34.886719 6.777344 35.117188 6.824219 35.34375 C 6.875 35.574219 6.949219 35.792969 7.046875 36.003906 C 7.148438 36.210938 7.273438 36.40625 7.425781 36.585938 C 7.574219 36.765625 7.742188 36.925781 7.929688 37.0625 C 8.117188 37.199219 8.320312 37.3125 8.539062 37.398438 L 16.554688 40.742188 C 15.957031 42.5625 15.457031 44.40625 15.058594 46.277344 C 14.980469 46.652344 14.992188 47.023438 15.097656 47.390625 C 15.207031 47.753906 15.394531 48.074219 15.664062 48.34375 L 26.585938 59.265625 C 26.855469 59.535156 27.175781 59.722656 27.542969 59.832031 C 27.90625 59.9375 28.277344 59.953125 28.652344 59.871094 C 30.523438 59.472656 32.367188 58.972656 34.1875 58.375 L 37.5 66.363281 C 37.589844 66.578125 37.699219 66.78125 37.839844 66.96875 C 37.976562 67.15625 38.136719 67.328125 38.3125 67.476562 C 38.492188 67.625 38.6875 67.75 38.898438 67.851562 C 39.109375 67.953125 39.328125 68.027344 39.554688 68.074219 C 39.785156 68.121094 40.015625 68.140625 40.25 68.132812 C 40.480469 68.121094 40.710938 68.082031 40.933594 68.019531 C 41.15625 67.953125 41.371094 67.859375 41.570312 67.742188 C 41.773438 67.625 41.957031 67.484375 42.121094 67.320312 L 47.914062 61.53125 C 49.089844 60.351562 49.976562 58.984375 50.574219 57.429688 C 51.171875 55.875 51.429688 54.265625 51.34375 52.601562 L 51.167969 49.113281 C 63.828125 38.984375 71.445312 24.078125 73.792969 4.734375 C 73.824219 4.488281 73.824219 4.242188 73.796875 4 C 73.773438 3.753906 73.71875 3.511719 73.636719 3.28125 C 73.558594 3.046875 73.449219 2.824219 73.320312 2.613281 C 73.1875 2.40625 73.035156 2.214844 72.863281 2.039062 C 72.6875 1.863281 72.496094 1.710938 72.285156 1.582031 C 72.074219 1.449219 71.855469 1.34375 71.621094 1.261719 C 71.386719 1.183594 71.148438 1.128906 70.902344 1.101562 C 70.65625 1.074219 70.410156 1.078125 70.164062 1.105469 C 50.820312 3.464844 35.914062 11.070312 25.824219 23.726562 Z M 69.140625 5.773438 C 66.664062 23.570312 59.417969 37.191406 47.515625 46.25 C 47.222656 46.472656 46.996094 46.753906 46.839844 47.089844 C 46.683594 47.425781 46.613281 47.777344 46.632812 48.148438 L 46.871094 52.792969 C 46.925781 53.828125 46.765625 54.828125 46.394531 55.796875 C 46.019531 56.765625 45.46875 57.613281 44.734375 58.34375 L 40.6875 62.390625 L 37.5 54.648438 C 37.386719 54.378906 37.230469 54.140625 37.023438 53.933594 C 36.820312 53.726562 36.582031 53.566406 36.3125 53.449219 C 36.046875 53.335938 35.765625 53.273438 35.472656 53.269531 C 35.183594 53.261719 34.898438 53.3125 34.628906 53.414062 C 32.742188 54.132812 30.820312 54.734375 28.859375 55.21875 L 19.683594 46.046875 C 20.167969 44.089844 20.765625 42.164062 21.484375 40.28125 C 21.589844 40.007812 21.640625 39.722656 21.636719 39.429688 C 21.628906 39.140625 21.570312 38.859375 21.453125 38.589844 C 21.339844 38.320312 21.175781 38.082031 20.96875 37.878906 C 20.761719 37.671875 20.519531 37.511719 20.25 37.398438 L 12.53125 34.214844 L 16.554688 30.167969 C 17.285156 29.4375 18.132812 28.886719 19.097656 28.515625 C 20.0625 28.144531 21.058594 27.984375 22.089844 28.035156 L 26.734375 28.273438 C 27.105469 28.292969 27.460938 28.226562 27.796875 28.070312 C 28.132812 27.914062 28.410156 27.6875 28.636719 27.390625 C 37.722656 15.511719 51.339844 8.226562 69.132812 5.765625 Z M 51.097656 31.953125 C 51.410156 31.953125 51.722656 31.9375 52.03125 31.902344 C 52.34375 31.863281 52.648438 31.8125 52.953125 31.738281 C 53.257812 31.667969 53.554688 31.582031 53.851562 31.476562 C 54.144531 31.371094 54.429688 31.25 54.710938 31.109375 C 54.992188 30.972656 55.261719 30.816406 55.523438 30.648438 C 55.785156 30.480469 56.039062 30.296875 56.28125 30.097656 C 56.519531 29.898438 56.75 29.6875 56.96875 29.464844 C 57.183594 29.238281 57.386719 29.003906 57.578125 28.753906 C 57.765625 28.507812 57.941406 28.25 58.101562 27.980469 C 58.261719 27.714844 58.40625 27.4375 58.535156 27.152344 C 58.664062 26.867188 58.777344 26.578125 58.871094 26.28125 C 58.96875 25.980469 59.046875 25.679688 59.105469 25.375 C 59.167969 25.066406 59.210938 24.757812 59.234375 24.449219 C 59.261719 24.136719 59.269531 23.824219 59.257812 23.511719 C 59.246094 23.199219 59.21875 22.890625 59.171875 22.582031 C 59.125 22.273438 59.0625 21.96875 58.980469 21.667969 C 58.902344 21.363281 58.804688 21.070312 58.6875 20.777344 C 58.574219 20.488281 58.441406 20.207031 58.292969 19.929688 C 58.148438 19.65625 57.984375 19.390625 57.804688 19.132812 C 57.628906 18.875 57.4375 18.628906 57.230469 18.394531 C 57.023438 18.160156 56.804688 17.9375 56.574219 17.730469 C 56.34375 17.519531 56.101562 17.324219 55.847656 17.144531 C 55.59375 16.960938 55.328125 16.792969 55.054688 16.644531 C 54.78125 16.492188 54.5 16.355469 54.214844 16.238281 C 53.925781 16.117188 53.628906 16.015625 53.328125 15.929688 C 53.03125 15.84375 52.726562 15.777344 52.417969 15.726562 C 52.109375 15.675781 51.800781 15.644531 51.488281 15.628906 C 51.175781 15.613281 50.863281 15.617188 50.550781 15.636719 C 50.242188 15.65625 49.929688 15.695312 49.625 15.75 C 49.316406 15.808594 49.015625 15.882812 48.714844 15.972656 C 48.417969 16.0625 48.125 16.171875 47.835938 16.296875 C 47.550781 16.417969 47.273438 16.558594 47.003906 16.714844 C 46.734375 16.871094 46.472656 17.042969 46.222656 17.230469 C 45.972656 17.417969 45.730469 17.617188 45.503906 17.832031 C 45.277344 18.042969 45.0625 18.269531 44.859375 18.507812 C 44.660156 18.746094 44.472656 18.996094 44.296875 19.253906 C 44.125 19.515625 43.964844 19.785156 43.824219 20.0625 C 43.683594 20.339844 43.554688 20.625 43.445312 20.917969 C 43.335938 21.210938 43.242188 21.507812 43.167969 21.808594 C 43.09375 22.113281 43.035156 22.417969 42.996094 22.730469 C 42.953125 23.039062 42.929688 23.347656 42.925781 23.660156 C 42.921875 23.972656 42.933594 24.285156 42.964844 24.59375 C 42.996094 24.90625 43.046875 25.214844 43.113281 25.519531 C 43.175781 25.824219 43.261719 26.125 43.363281 26.421875 C 43.460938 26.714844 43.578125 27.003906 43.714844 27.285156 C 43.847656 27.570312 43.996094 27.84375 44.160156 28.105469 C 44.328125 28.371094 44.507812 28.628906 44.699219 28.871094 C 44.894531 29.117188 45.101562 29.347656 45.324219 29.570312 C 46.085938 30.335938 46.96875 30.929688 47.96875 31.347656 C 48.96875 31.765625 50.007812 31.976562 51.089844 31.976562 Z M 48.496094 21.183594 C 48.84375 20.839844 49.242188 20.578125 49.691406 20.394531 C 50.140625 20.210938 50.609375 20.121094 51.097656 20.121094 C 51.582031 20.125 52.050781 20.21875 52.5 20.40625 C 52.949219 20.59375 53.347656 20.859375 53.691406 21.203125 C 54.03125 21.550781 54.296875 21.945312 54.484375 22.398438 C 54.667969 22.847656 54.761719 23.316406 54.761719 23.800781 C 54.761719 24.289062 54.667969 24.757812 54.484375 25.207031 C 54.296875 25.65625 54.03125 26.054688 53.691406 26.398438 C 53.347656 26.742188 52.949219 27.007812 52.5 27.199219 C 52.050781 27.386719 51.582031 27.480469 51.097656 27.480469 C 50.609375 27.484375 50.140625 27.394531 49.691406 27.207031 C 49.242188 27.023438 48.84375 26.761719 48.496094 26.417969 C 48.148438 26.074219 47.878906 25.675781 47.691406 25.226562 C 47.5 24.773438 47.40625 24.304688 47.40625 23.8125 C 47.40625 23.324219 47.5 22.855469 47.6875 22.402344 C 47.875 21.949219 48.140625 21.550781 48.488281 21.207031 Z M 3.980469 73.722656 L 4.027344 73.722656 C 16.316406 73.507812 22.351562 66.992188 24.378906 64.164062 C 24.699219 63.71875 24.863281 63.222656 24.867188 62.675781 C 24.875 62.128906 24.726562 61.628906 24.417969 61.175781 C 24.109375 60.722656 23.703125 60.398438 23.191406 60.203125 C 22.679688 60.007812 22.160156 59.976562 21.628906 60.109375 C 20.136719 60.496094 18.625 60.597656 17.09375 60.417969 C 16.761719 60.375 16.445312 60.28125 16.144531 60.136719 C 15.84375 59.988281 15.574219 59.796875 15.339844 59.5625 C 15.101562 59.324219 14.910156 59.054688 14.765625 58.753906 C 14.617188 58.453125 14.523438 58.136719 14.484375 57.804688 C 14.300781 56.277344 14.40625 54.765625 14.789062 53.273438 C 14.921875 52.742188 14.890625 52.222656 14.695312 51.710938 C 14.5 51.199219 14.175781 50.789062 13.722656 50.480469 C 13.269531 50.175781 12.769531 50.023438 12.222656 50.03125 C 11.675781 50.039062 11.179688 50.203125 10.738281 50.519531 C 7.9375 52.539062 1.394531 58.582031 1.183594 70.867188 C 1.179688 71.242188 1.246094 71.605469 1.382812 71.953125 C 1.523438 72.304688 1.726562 72.613281 1.988281 72.882812 C 2.253906 73.148438 2.558594 73.355469 2.90625 73.503906 C 3.25 73.648438 3.613281 73.722656 3.988281 73.722656 Z M 9.964844 57.523438 C 9.964844 57.796875 9.992188 58.066406 10.039062 58.335938 C 10.140625 59.167969 10.375 59.957031 10.738281 60.710938 C 11.105469 61.460938 11.582031 62.132812 12.171875 62.726562 C 12.761719 63.316406 13.433594 63.796875 14.183594 64.164062 C 14.9375 64.53125 15.726562 64.765625 16.554688 64.867188 L 17.371094 64.941406 C 15.683594 66.195312 13.847656 67.179688 11.871094 67.894531 C 9.894531 68.609375 7.855469 69.027344 5.753906 69.144531 C 5.871094 67.042969 6.285156 65.003906 7 63.027344 C 7.714844 61.046875 8.699219 59.210938 9.949219 57.523438 Z M 9.964844 57.523438 "/></g></svg>